<svg xmlns="http://www.w3.org/2000/svg" width="50" height="50" fill="none"><g fill="#fff" clip-path="url(#a)"><path d="M24.97-.042h.256c5.121.027 9.79 2.15 13.393 5.751C40.866 8 42.4 10.933 43.237 14.014l.055.2c.382 1.481.512 2.968.5 4.494v.256c-.008 1.454-.116 2.856-.433 4.279l-.071.322c-1.773 7.764-6.654 14.815-11.99 20.602a38 38 0 0 0-.571.643c-.968 1.109-2.002 2.159-3.041 3.2l-.273.274c-1.759 1.755-1.759 1.755-2.389 1.778-.618-.023-.88-.319-1.294-.745l-.494-.44c-.63-.572-1.229-1.175-1.831-1.776l-.148-.147a27 27 0 0 1-1.472-1.56c-.267-.306-.548-.598-.828-.893a25 25 0 0 1-1.354-1.553 27 27 0 0 0-.634-.749 43 43 0 0 1-1.883-2.359 32 32 0 0 0-.387-.5c-1.31-1.666-2.486-3.435-3.566-5.257l-.156-.263c-2.462-4.17-4.7-9.047-4.75-13.974l-.003-.24C6.172 14.188 7.86 9.347 11.67 5.423c2.36-2.392 5.362-4.032 8.594-4.91l.199-.055c1.486-.382 2.977-.512 4.506-.5M12.854 7.343c-3.256 3.631-4.674 8.03-4.456 12.872.559 7.039 4.763 13.677 9.083 19.043l.15.189a68 68 0 0 0 3.125 3.651q.305.334.6.677c.29.335.6.644.915.955.172.174.331.353.489.54.36.417.743.81 1.13 1.203l.19.197c.317.32.57.572 1.018.694 1.016-.886 2.002-1.823 2.874-2.853.173-.197.356-.38.544-.565.314-.31.607-.63.894-.965q.3-.343.607-.677c.373-.414.73-.839 1.08-1.272q.282-.348.569-.691a58 58 0 0 0 2.22-2.84l.157-.213a49 49 0 0 0 2.355-3.473c2.322-3.747 4.207-7.677 5.008-12.037l.04-.204c.773-4.203-.32-8.686-2.695-12.199a16.93 16.93 0 0 0-10.797-7.012q-.353-.062-.708-.116l-.348-.055c-5.192-.622-10.441 1.404-14.044 5.15"/><path d="M31.79 10.725c1.761 1.557 2.874 3.42 3.464 5.682l.073.276c.569 2.686-.057 5.557-1.536 7.837-1.596 2.302-3.756 3.783-6.447 4.484l-.277.073c-2.686.57-5.554-.078-7.851-1.522a10 10 0 0 1-1.247-.992l-.274-.25c-1.502-1.433-2.43-3.227-2.95-5.219l-.072-.276c-.57-2.686.057-5.558 1.536-7.837 1.596-2.302 3.756-3.783 6.447-4.485l.276-.072c3.131-.664 6.43.278 8.858 2.3m-12.357 1.873-.225.197c-1.394 1.302-2.426 3.359-2.509 5.272l-.015.296c-.06 2.218.696 4.285 2.163 5.954l.198.225c1.302 1.394 3.358 2.426 5.271 2.51l.296.014c2.218.06 4.286-.696 5.954-2.163l.226-.198c1.394-1.302 2.425-3.358 2.509-5.271l.015-.296c.06-2.218-.696-4.286-2.164-5.954l-.197-.226c-1.302-1.393-3.359-2.425-5.272-2.508l-.296-.016c-2.218-.06-4.285.696-5.954 2.164"/></g><defs><clipPath id="a"><path fill="#fff" d="M0 0h50v50H0z"/></clipPath></defs></svg>